#define 1362277_tmp_width 20
#define 1362277_tmp_height 20
static char 1362277_tmp_bits[] = {
   0x00, 0x00, 0x00, 0x80, 0x1F, 0x00, 0x60, 0x60, 0xC0, 0x10, 0x86, 0x20,
   0x08, 0x06, 0x01, 0x04, 0x06, 0x02, 0x64, 0x66, 0x02, 0x62, 0x66, 0x04,
   0xE2, 0x7F, 0x24, 0xE2, 0x7F, 0x04, 0xE2, 0x7F, 0x54, 0xE2, 0x7F, 0xC4,
   0xE2, 0x7F, 0x44, 0xE4, 0x7F, 0x02, 0x64, 0x60, 0xF2, 0x68, 0x60, 0x51,
   0x10, 0x80, 0x00, 0x60, 0x60, 0x00, 0x80, 0x1F, 0x00, 0x00, 0x00, 0x00
};