#define 1354322_tmp_width 20
#define 1354322_tmp_height 20
static char 1354322_tmp_bits[] = {
   0x00, 0x00, 0x00, 0x00, 0x1F, 0x00, 0xC0, 0x7F, 0x10, 0xE0, 0xFF, 0xB0,
   0xF0, 0xE0, 0xF1, 0x38, 0x80, 0x03, 0x1C, 0x00, 0x07, 0x1C, 0x00, 0x07,
   0x0E, 0x00, 0x0E, 0x0E, 0x00, 0x0E, 0x0E, 0x00, 0x4E, 0x0E, 0x20, 0xFE,
   0x0E, 0x20, 0x07, 0x1C, 0xA0, 0x07, 0x3C, 0xE0, 0x03, 0x78, 0xE0, 0x01,
   0xF0, 0xE0, 0x07, 0xE0, 0xE0, 0x07, 0x00, 0x00, 0x00, 0x00, 0x00, 0x00
};