#define 1360825_tmp_width 20
#define 1360825_tmp_height 20
static char 1360825_tmp_bits[] = {
   0x00, 0x00, 0x00, 0x00, 0x00, 0x00, 0x00, 0x00, 0xC0, 0x00, 0x06, 0xB0,
   0x00, 0x06, 0x00, 0x00, 0x06, 0x00, 0x60, 0x66, 0x00, 0x60, 0x66, 0x00,
   0xE0, 0x7F, 0x22, 0xE0, 0x7F, 0x06, 0xE0, 0xFF, 0x5F, 0xE0, 0xFF, 0xCF,
   0xE0, 0x7F, 0x86, 0xE0, 0x7F, 0x02, 0x60, 0x60, 0xF0, 0x60, 0x60, 0xB0,
   0x00, 0x00, 0x00, 0x00, 0x00, 0x00, 0x00, 0x00, 0x00, 0x00, 0x00, 0x00
};