#define 1348088_tmp_width 20
#define 1348088_tmp_height 20
static char 1348088_tmp_bits[] = {
   0x00, 0x00, 0x00, 0x00, 0x00, 0x00, 0x00, 0x00, 0x00, 0x00, 0x06, 0x60,
   0x00, 0x06, 0x90, 0x00, 0x06, 0x00, 0x60, 0x66, 0x00, 0x60, 0x66, 0x30,
   0xE0, 0x7F, 0x00, 0xE0, 0x7F, 0x00, 0xE0, 0x7F, 0x60, 0xE0, 0x7F, 0xA0,
   0xE0, 0x7F, 0x90, 0xE0, 0x7F, 0x00, 0x60, 0x66, 0x00, 0x60, 0x66, 0x30,
   0x00, 0x06, 0x00, 0x80, 0x1F, 0xD0, 0x00, 0x0F, 0x10, 0x00, 0x06, 0xA0
};