#define 1351013_tmp_width 20
#define 1351013_tmp_height 20
static char 1351013_tmp_bits[] = {
   0x00, 0x00, 0x40, 0x00, 0x0E, 0x40, 0x00, 0x1F, 0x90, 0x80, 0x3B, 0x00,
   0xC0, 0x75, 0x00, 0xE0, 0xEA, 0x20, 0x70, 0xD5, 0x01, 0xB0, 0xAE, 0x01,
   0x70, 0xD5, 0x01, 0xE0, 0xEA, 0x00, 0xC0, 0x75, 0x50, 0x90, 0x3B, 0x71,
   0x00, 0x1F, 0x40, 0x40, 0x4E, 0x01, 0x10, 0x01, 0x00, 0x40, 0x22, 0x01,
   0xF8, 0xFF, 0x03, 0xF8, 0xFF, 0x03, 0xFC, 0xFF, 0x07, 0xFC, 0xFF, 0x07
};