#define 1358901_tmp_width 20
#define 1358901_tmp_height 20
static char 1358901_tmp_bits[] = {
   0x00, 0x00, 0x00, 0x00, 0x00, 0x00, 0x00, 0x00, 0x10, 0x00, 0x06, 0xA0,
   0x00, 0x06, 0xF0, 0x00, 0x06, 0x00, 0x60, 0x66, 0x00, 0x60, 0x66, 0x00,
   0xE4, 0x7F, 0x00, 0xE6, 0x7F, 0x00, 0xFF, 0x7F, 0x40, 0xFF, 0x7F, 0xF0,
   0xE6, 0x7F, 0x00, 0xE4, 0x7F, 0x00, 0x60, 0x60, 0x00, 0x60, 0x60, 0x00,
   0x00, 0x00, 0x00, 0x00, 0x00, 0x00, 0x00, 0x00, 0x00, 0x00, 0x00, 0x00
};