#define 1357028_tmp_width 20
#define 1357028_tmp_height 20
static char 1357028_tmp_bits[] = {
   0x00, 0x00, 0x00, 0x80, 0x0F, 0x00, 0xE0, 0x3F, 0x10, 0xF0, 0x7F, 0xA0,
   0x78, 0xF0, 0xF0, 0x1C, 0xC0, 0x01, 0x0E, 0x80, 0x03, 0x0E, 0x80, 0x03,
   0x07, 0x00, 0x07, 0x07, 0x00, 0x07, 0x07, 0x00, 0x47, 0x47, 0x00, 0xF7,
   0x4E, 0x00, 0x07, 0x5E, 0x80, 0x03, 0x7C, 0xC0, 0x03, 0x78, 0xE0, 0x01,
   0x7E, 0xF0, 0x00, 0x7E, 0x70, 0x00, 0x00, 0x00, 0x00, 0x00, 0x00, 0x00
};